<svg width="460" height="423" viewBox="0 0 460 423" fill="none" xmlns="http://www.w3.org/2000/svg">
<path d="M173.947 69.344C164.027 69.344 156.283 66.624 150.715 61.184C145.147 55.744 142.363 48.032 142.363 38.048V0.799995H161.371V37.472C161.371 43.232 162.491 47.36 164.731 49.856C167.035 52.352 170.171 53.6 174.139 53.6C178.107 53.6 181.211 52.352 183.451 49.856C185.691 47.36 186.811 43.232 186.811 37.472V0.799995H205.531V38.048C205.531 48.032 202.747 55.744 197.179 61.184C191.611 66.624 183.867 69.344 173.947 69.344ZM236.456 68.864C232.04 68.864 227.72 68.352 223.496 67.328C219.336 66.304 215.976 65.024 213.416 63.488L218.888 51.008C221.32 52.48 224.168 53.664 227.432 54.56C230.696 55.392 233.896 55.808 237.031 55.808C240.104 55.808 242.216 55.488 243.368 54.848C244.584 54.208 245.192 53.344 245.192 52.256C245.192 51.232 244.616 50.496 243.464 50.048C242.376 49.536 240.904 49.152 239.048 48.896C237.256 48.64 235.272 48.352 233.096 48.032C230.92 47.712 228.712 47.296 226.472 46.784C224.296 46.208 222.28 45.376 220.424 44.288C218.632 43.136 217.192 41.6 216.104 39.68C215.016 37.76 214.472 35.328 214.472 32.384C214.472 29.056 215.432 26.112 217.352 23.552C219.336 20.928 222.216 18.88 225.992 17.408C229.768 15.872 234.376 15.104 239.816 15.104C243.464 15.104 247.144 15.488 250.856 16.256C254.632 16.96 257.8 18.048 260.36 19.52L254.888 31.904C252.328 30.432 249.768 29.44 247.208 28.928C244.648 28.352 242.216 28.064 239.911 28.064C236.84 28.064 234.664 28.416 233.384 29.12C232.168 29.824 231.56 30.688 231.56 31.712C231.56 32.736 232.104 33.536 233.192 34.112C234.28 34.624 235.72 35.04 237.512 35.36C239.368 35.616 241.384 35.904 243.56 36.224C245.736 36.48 247.912 36.896 250.088 37.472C252.328 38.048 254.344 38.912 256.136 40.064C257.992 41.152 259.464 42.656 260.552 44.576C261.64 46.432 262.184 48.832 262.184 51.776C262.184 54.976 261.192 57.856 259.208 60.416C257.288 62.976 254.408 65.024 250.568 66.56C246.792 68.096 242.088 68.864 236.456 68.864ZM297.308 68.864C291.164 68.864 285.788 67.712 281.18 65.408C276.636 63.04 273.084 59.84 270.523 55.808C268.028 51.712 266.78 47.072 266.78 41.888C266.78 36.704 267.996 32.096 270.428 28.064C272.924 23.968 276.348 20.8 280.7 18.56C285.052 16.256 289.948 15.104 295.388 15.104C300.508 15.104 305.18 16.16 309.404 18.272C313.628 20.32 316.988 23.36 319.484 27.392C321.98 31.424 323.228 36.32 323.228 42.08C323.228 42.72 323.196 43.456 323.132 44.288C323.068 45.12 323.004 45.888 322.94 46.592H281.756V36.992H313.244L306.332 39.68C306.396 37.312 305.948 35.264 304.988 33.536C304.092 31.808 302.812 30.464 301.148 29.504C299.548 28.544 297.66 28.064 295.484 28.064C293.308 28.064 291.388 28.544 289.724 29.504C288.124 30.464 286.876 31.84 285.98 33.632C285.084 35.36 284.636 37.408 284.636 39.776V42.56C284.636 45.12 285.148 47.328 286.172 49.184C287.26 51.04 288.796 52.48 290.78 53.504C292.764 54.464 295.132 54.944 297.884 54.944C300.444 54.944 302.62 54.592 304.412 53.888C306.268 53.12 308.092 51.968 309.884 50.432L319.484 60.416C316.988 63.168 313.916 65.28 310.268 66.752C306.62 68.16 302.3 68.864 297.308 68.864ZM137.806 166V137.584L142.222 149.008L112.174 98.8H132.238L153.934 135.184H142.318L164.11 98.8H182.542L152.59 149.008L156.814 137.584V166H137.806ZM206.906 166.864C201.21 166.864 196.154 165.712 191.738 163.408C187.322 161.104 183.834 157.936 181.273 153.904C178.778 149.808 177.53 145.136 177.53 139.888C177.53 134.64 178.778 130 181.273 125.968C183.834 121.936 187.322 118.8 191.738 116.56C196.154 114.256 201.21 113.104 206.906 113.104C212.602 113.104 217.658 114.256 222.074 116.56C226.554 118.8 230.042 121.936 232.538 125.968C235.034 130 236.282 134.64 236.282 139.888C236.282 145.136 235.034 149.808 232.538 153.904C230.042 157.936 226.554 161.104 222.074 163.408C217.658 165.712 212.602 166.864 206.906 166.864ZM206.906 152.368C209.018 152.368 210.874 151.888 212.474 150.928C214.138 149.968 215.45 148.56 216.41 146.704C217.37 144.784 217.85 142.512 217.85 139.888C217.85 137.264 217.37 135.056 216.41 133.264C215.45 131.408 214.138 130 212.474 129.04C210.874 128.08 209.018 127.6 206.906 127.6C204.858 127.6 203.002 128.08 201.338 129.04C199.738 130 198.426 131.408 197.402 133.264C196.442 135.056 195.962 137.264 195.962 139.888C195.962 142.512 196.442 144.784 197.402 146.704C198.426 148.56 199.738 149.968 201.338 150.928C203.002 151.888 204.858 152.368 206.906 152.368ZM266.619 166.864C262.395 166.864 258.587 166.032 255.195 164.368C251.867 162.704 249.243 160.112 247.323 156.592C245.467 153.008 244.539 148.496 244.539 143.056V113.968H262.779V140.08C262.779 144.112 263.515 146.992 264.987 148.72C266.523 150.448 268.667 151.312 271.419 151.312C273.211 151.312 274.843 150.896 276.315 150.064C277.787 149.232 278.971 147.92 279.867 146.128C280.763 144.272 281.211 141.904 281.211 139.024V113.968H299.451V166H282.075V151.312L285.435 155.44C283.643 159.28 281.051 162.16 277.659 164.08C274.267 165.936 270.587 166.864 266.619 166.864ZM311.2 166V113.968H328.576V129.136L325.984 124.816C327.52 120.912 330.016 118 333.472 116.08C336.928 114.096 341.12 113.104 346.048 113.104V129.52C345.216 129.392 344.48 129.328 343.84 129.328C343.264 129.264 342.624 129.232 341.92 129.232C338.208 129.232 335.2 130.256 332.896 132.304C330.592 134.288 329.44 137.552 329.44 142.096V166H311.2Z" fill="black"/>
<path d="M9.2725 288V198.4H50.2325C58.4245 198.4 65.4645 199.723 71.3525 202.368C77.3258 205.013 81.9338 208.853 85.1765 213.888C88.4192 218.837 90.0405 224.725 90.0405 231.552C90.0405 238.293 88.4192 244.139 85.1765 249.088C81.9338 254.037 77.3258 257.877 71.3525 260.608C65.4645 263.253 58.4245 264.576 50.2325 264.576H23.3525L34.6165 253.568V288H9.2725ZM34.6165 256.256L23.3525 244.608H48.6965C53.9872 244.608 57.9125 243.456 60.4725 241.152C63.1178 238.848 64.4405 235.648 64.4405 231.552C64.4405 227.371 63.1178 224.128 60.4725 221.824C57.9125 219.52 53.9872 218.368 48.6965 218.368H23.3525L34.6165 206.72V256.256ZM102.496 288V193.024H126.816V288H102.496ZM184.989 288V275.072L183.325 271.872V248.064C183.325 244.224 182.13 241.28 179.741 239.232C177.437 237.099 173.725 236.032 168.604 236.032C165.277 236.032 161.906 236.587 158.493 237.696C155.079 238.72 152.178 240.171 149.789 242.048L141.597 225.536C145.522 222.976 150.215 221.013 155.677 219.648C161.223 218.197 166.727 217.472 172.189 217.472C183.453 217.472 192.157 220.075 198.301 225.28C204.53 230.4 207.645 238.464 207.645 249.472V288H184.989ZM164.509 289.152C158.962 289.152 154.269 288.213 150.429 286.336C146.589 284.459 143.645 281.899 141.597 278.656C139.634 275.413 138.653 271.787 138.653 267.776C138.653 263.509 139.719 259.84 141.853 256.768C144.071 253.611 147.442 251.221 151.965 249.6C156.487 247.893 162.333 247.04 169.501 247.04H185.885V259.712H172.829C168.903 259.712 166.13 260.352 164.509 261.632C162.973 262.912 162.205 264.619 162.205 266.752C162.205 268.885 163.015 270.592 164.637 271.872C166.258 273.152 168.477 273.792 171.293 273.792C173.938 273.792 176.327 273.152 178.461 271.872C180.679 270.507 182.301 268.459 183.325 265.728L186.653 274.688C185.373 279.467 182.855 283.093 179.101 285.568C175.431 287.957 170.567 289.152 164.509 289.152ZM248.212 289.152C242.324 289.152 236.564 288.469 230.932 287.104C225.385 285.739 220.905 284.032 217.492 281.984L224.788 265.344C228.03 267.307 231.828 268.885 236.18 270.08C240.532 271.189 244.798 271.744 248.979 271.744C253.076 271.744 255.892 271.317 257.428 270.464C259.049 269.611 259.86 268.459 259.86 267.008C259.86 265.643 259.092 264.661 257.556 264.064C256.105 263.381 254.142 262.869 251.668 262.528C249.278 262.187 246.633 261.803 243.732 261.376C240.83 260.949 237.886 260.395 234.9 259.712C231.998 258.944 229.31 257.835 226.836 256.384C224.446 254.848 222.526 252.8 221.076 250.24C219.625 247.68 218.9 244.437 218.9 240.512C218.9 236.075 220.18 232.149 222.74 228.736C225.385 225.237 229.225 222.507 234.26 220.544C239.294 218.496 245.438 217.472 252.692 217.472C257.556 217.472 262.462 217.984 267.412 219.008C272.446 219.947 276.67 221.397 280.084 223.36L272.788 239.872C269.374 237.909 265.961 236.587 262.548 235.904C259.134 235.136 255.892 234.752 252.819 234.752C248.724 234.752 245.822 235.221 244.116 236.16C242.494 237.099 241.684 238.251 241.684 239.616C241.684 240.981 242.409 242.048 243.86 242.816C245.31 243.499 247.23 244.053 249.62 244.48C252.094 244.821 254.782 245.205 257.684 245.632C260.585 245.973 263.486 246.528 266.388 247.296C269.374 248.064 272.062 249.216 274.452 250.752C276.926 252.203 278.889 254.208 280.34 256.768C281.79 259.243 282.516 262.443 282.516 266.368C282.516 270.635 281.193 274.475 278.548 277.888C275.988 281.301 272.148 284.032 267.028 286.08C261.993 288.128 255.721 289.152 248.212 289.152ZM323.972 289.152C315.097 289.152 308.185 286.976 303.236 282.624C298.286 278.187 295.812 271.531 295.812 262.656V203.136H320.132V262.4C320.132 264.875 320.814 266.837 322.18 268.288C323.545 269.653 325.294 270.336 327.428 270.336C330.329 270.336 332.804 269.611 334.852 268.16L340.868 285.184C338.82 286.549 336.302 287.531 333.316 288.128C330.329 288.811 327.214 289.152 323.972 289.152ZM285.7 239.36V221.184H336.004V239.36H285.7ZM350.246 288V218.624H374.566V288H350.246ZM362.406 210.944C357.968 210.944 354.384 209.707 351.654 207.232C348.923 204.757 347.558 201.685 347.558 198.016C347.558 194.347 348.923 191.275 351.654 188.8C354.384 186.325 357.968 185.088 362.406 185.088C366.843 185.088 370.427 186.283 373.158 188.672C375.888 190.976 377.254 193.963 377.254 197.632C377.254 201.472 375.888 204.672 373.158 207.232C370.512 209.707 366.928 210.944 362.406 210.944ZM425.827 289.152C418.147 289.152 411.277 287.616 405.219 284.544C399.245 281.472 394.552 277.248 391.139 271.872C387.725 266.411 386.019 260.181 386.019 253.184C386.019 246.187 387.725 240 391.139 234.624C394.552 229.248 399.245 225.067 405.219 222.08C411.277 219.008 418.147 217.472 425.827 217.472C433.677 217.472 440.461 219.136 446.179 222.464C451.896 225.792 455.949 230.485 458.339 236.544L439.523 246.144C437.901 242.901 435.896 240.555 433.507 239.104C431.117 237.568 428.515 236.8 425.699 236.8C422.883 236.8 420.323 237.44 418.019 238.72C415.715 240 413.88 241.877 412.515 244.352C411.235 246.741 410.595 249.685 410.595 253.184C410.595 256.768 411.235 259.797 412.515 262.272C413.88 264.747 415.715 266.624 418.019 267.904C420.323 269.184 422.883 269.824 425.699 269.824C428.515 269.824 431.117 269.099 433.507 267.648C435.896 266.112 437.901 263.723 439.523 260.48L458.339 270.08C455.949 276.139 451.896 280.832 446.179 284.16C440.461 287.488 433.677 289.152 425.827 289.152Z" fill="url(#paint0_linear_1672_19)" style="mix-blend-mode:darken"/>
<path d="M80.6561 403L58.8641 335.8H78.4481L96.7841 393.976H86.8961L106.192 335.8H123.664L141.904 393.976H132.4L151.312 335.8H169.456L147.664 403H127.312L111.76 353.56H117.232L101.008 403H80.6561ZM176.715 403V350.968H194.955V403H176.715ZM185.835 345.208C182.507 345.208 179.819 344.28 177.771 342.424C175.723 340.568 174.699 338.264 174.699 335.512C174.699 332.76 175.723 330.456 177.771 328.6C179.819 326.744 182.507 325.816 185.835 325.816C189.163 325.816 191.851 326.712 193.899 328.504C195.947 330.232 196.971 332.472 196.971 335.224C196.971 338.104 195.947 340.504 193.899 342.424C191.915 344.28 189.227 345.208 185.835 345.208ZM225.721 403.864C221.305 403.864 216.985 403.352 212.761 402.328C208.601 401.304 205.241 400.024 202.681 398.488L208.153 386.008C210.585 387.48 213.433 388.664 216.697 389.56C219.961 390.392 223.161 390.808 226.297 390.808C229.369 390.808 231.481 390.488 232.633 389.848C233.849 389.208 234.457 388.344 234.457 387.256C234.457 386.232 233.881 385.496 232.729 385.048C231.641 384.536 230.169 384.152 228.313 383.896C226.521 383.64 224.537 383.352 222.361 383.032C220.185 382.712 217.977 382.296 215.737 381.784C213.561 381.208 211.545 380.376 209.689 379.288C207.897 378.136 206.457 376.6 205.369 374.68C204.281 372.76 203.737 370.328 203.737 367.384C203.737 364.056 204.697 361.112 206.617 358.552C208.601 355.928 211.481 353.88 215.257 352.408C219.033 350.872 223.641 350.104 229.081 350.104C232.729 350.104 236.409 350.488 240.121 351.256C243.897 351.96 247.065 353.048 249.625 354.52L244.153 366.904C241.593 365.432 239.033 364.44 236.473 363.928C233.913 363.352 231.481 363.064 229.177 363.064C226.105 363.064 223.929 363.416 222.649 364.12C221.433 364.824 220.825 365.688 220.825 366.712C220.825 367.736 221.369 368.536 222.457 369.112C223.545 369.624 224.985 370.04 226.777 370.36C228.633 370.616 230.649 370.904 232.825 371.224C235.001 371.48 237.177 371.896 239.353 372.472C241.593 373.048 243.609 373.912 245.401 375.064C247.257 376.152 248.729 377.656 249.817 379.576C250.905 381.432 251.449 383.832 251.449 386.776C251.449 389.976 250.457 392.856 248.473 395.416C246.553 397.976 243.673 400.024 239.833 401.56C236.057 403.096 231.353 403.864 225.721 403.864ZM286.573 403.864C280.429 403.864 275.053 402.712 270.445 400.408C265.901 398.04 262.349 394.84 259.789 390.808C257.293 386.712 256.045 382.072 256.045 376.888C256.045 371.704 257.261 367.096 259.693 363.064C262.189 358.968 265.613 355.8 269.965 353.56C274.317 351.256 279.213 350.104 284.653 350.104C289.773 350.104 294.445 351.16 298.669 353.272C302.893 355.32 306.253 358.36 308.749 362.392C311.245 366.424 312.493 371.32 312.493 377.08C312.493 377.72 312.461 378.456 312.397 379.288C312.333 380.12 312.269 380.888 312.205 381.592H271.021V371.992H302.509L295.597 374.68C295.661 372.312 295.213 370.264 294.253 368.536C293.357 366.808 292.077 365.464 290.413 364.504C288.813 363.544 286.925 363.064 284.749 363.064C282.573 363.064 280.653 363.544 278.989 364.504C277.389 365.464 276.141 366.84 275.245 368.632C274.349 370.36 273.901 372.408 273.901 374.776V377.56C273.901 380.12 274.413 382.328 275.437 384.184C276.525 386.04 278.061 387.48 280.045 388.504C282.029 389.464 284.397 389.944 287.149 389.944C289.709 389.944 291.885 389.592 293.677 388.888C295.533 388.12 297.357 386.968 299.149 385.432L308.749 395.416C306.253 398.168 303.181 400.28 299.533 401.752C295.885 403.16 291.565 403.864 286.573 403.864ZM320.903 403V331.768H339.143V403H320.903ZM359.925 422.488C357.173 422.488 354.389 422.04 351.573 421.144C348.821 420.312 346.581 419.192 344.853 417.784L351.189 405.016C352.277 405.976 353.525 406.712 354.933 407.224C356.405 407.8 357.845 408.088 359.253 408.088C361.237 408.088 362.805 407.64 363.957 406.744C365.109 405.848 366.101 404.44 366.933 402.52L369.333 396.472L370.773 394.648L388.437 350.968H405.813L383.349 405.112C381.557 409.592 379.477 413.08 377.109 415.576C374.805 418.136 372.213 419.928 369.333 420.952C366.517 421.976 363.381 422.488 359.925 422.488ZM367.029 405.208L344.085 350.968H362.805L379.701 393.016L367.029 405.208Z" fill="black"/>
<defs>
<linearGradient id="paint0_linear_1672_19" x1="-122.166" y1="194" x2="501.373" y2="358.442" gradientUnits="userSpaceOnUse">
<stop offset="0.302208" stop-color="#AE82C2"/>
<stop offset="0.76923" stop-color="#45C138"/>
</linearGradient>
</defs>
</svg>
